<?xml version="1.0" encoding="utf-8"?>
<!-- Generator: Adobe Illustrator 25.3.1, SVG Export Plug-In . SVG Version: 6.00 Build 0)  -->
<svg version="1.1" id="Layer_1" xmlns="http://www.w3.org/2000/svg" xmlns:xlink="http://www.w3.org/1999/xlink" x="0px" y="0px"
	 viewBox="0 0 200 61.5" style="enable-background:new 0 0 200 61.5;" xml:space="preserve">
<style type="text/css">
	.st0{fill:#222222;}
</style>
<path class="st0" d="M7.4,44.1C5.1,42.8,3.3,41,2,38.7c-1.3-2.3-2-5-2-8c0-3,0.7-5.7,2-8c1.3-2.3,3.1-4.1,5.3-5.3
	c2.2-1.3,4.7-1.9,7.4-1.9c2.4,0,4.5,0.5,6.4,1.6c1.9,1.1,3.4,2.5,4.4,4.4c1.1,1.9,1.6,4,1.6,6.4H6.2v5.6c0,3.3,0.7,6,2.2,8.1
	c1.5,2.1,3.7,3.1,6.5,3.1c2.6,0,4.9-0.7,6.9-2.2c2-1.5,3.2-3.4,3.7-5.7h1.3c-0.5,2.8-1.9,5-4,6.7C20.7,45.1,18.1,46,15,46
	C12.2,46,9.6,45.3,7.4,44.1z M20.9,26.5c0-3.3-0.5-5.7-1.5-7.3c-1-1.6-2.6-2.4-4.8-2.4c-2.5,0-4.5,0.9-5.9,2.7
	c-1.4,1.8-2.2,4.1-2.4,7.1H20.9z"/>
<path class="st0" d="M58.1,43.8l3.6,0.5v1.1H47.9v-1.1l3.4-0.6L43.5,33l-8.3,10l4.6,1.3v1.1H29.6v-1.1l3.8-1.4l9.2-11.2l-10.2-14
	l-3.5-0.5V16h13.8v1.1l-3.6,0.6l7.1,9.7l7.6-9l-4.5-1.3v-1.1h10.4v1.1l-4.1,1.5l-8.5,10.1L58.1,43.8z"/>
<path class="st0" d="M63.6,60.3l4-0.6v-42l-4-0.6v-1.1h9.6v6c0.9-2,2.2-3.6,3.8-4.8c1.6-1.2,3.5-1.7,5.8-1.7c2.7,0,5.1,0.6,7.1,1.9
	c2,1.3,3.6,3,4.8,5.3c1.1,2.3,1.7,5,1.7,8c0,3.1-0.6,5.7-1.7,8c-1.1,2.3-2.7,4.1-4.8,5.3c-2,1.2-4.4,1.9-7.1,1.9
	c-2.2,0-4.2-0.6-5.8-1.7c-1.6-1.2-2.9-2.7-3.8-4.7v20.3l5.3,0.6v1.1h-15V60.3z M90.2,33.6v-5.7c0-7.3-2.6-11-7.9-11
	c-1.7,0-3.2,0.5-4.5,1.4c-1.4,1-2.4,2.3-3.2,3.9c-0.8,1.6-1.2,3.4-1.2,5.3v6.1c0,1.9,0.4,3.7,1.2,5.4c0.8,1.7,1.9,3,3.2,4
	c1.4,1,2.9,1.5,4.6,1.5C87.6,44.5,90.2,40.9,90.2,33.6z"/>
<path class="st0" d="M99.1,45.4v-1.1l4.3-0.6v-42l-4.3-0.6V0h9.9v43.7l4,0.6v1.1H99.1z"/>
<path class="st0" d="M123.1,44.1c-2.2-1.3-4-3.1-5.3-5.4s-2-5-2-8c0-3,0.7-5.6,2-7.9c1.3-2.3,3.1-4.1,5.3-5.4
	c2.2-1.3,4.7-1.9,7.4-1.9c2.7,0,5.2,0.6,7.4,1.9c2.2,1.3,4,3.1,5.3,5.4c1.3,2.3,2,5,2,7.9c0,3-0.7,5.6-2,8c-1.3,2.3-3.1,4.1-5.3,5.4
	c-2.2,1.3-4.7,1.9-7.4,1.9C127.8,46,125.3,45.3,123.1,44.1z M136.8,41.7c1.4-2,2.1-4.7,2.1-8.1v-5.7c0-3.4-0.7-6.1-2.1-8.1
	c-1.4-2-3.5-3-6.3-3c-2.8,0-4.9,1-6.3,3c-1.4,2-2.1,4.7-2.1,8.1v5.7c0,3.4,0.7,6.1,2.1,8.1c1.4,2,3.5,3.1,6.3,3.1
	C133.3,44.7,135.4,43.7,136.8,41.7z"/>
<path class="st0" d="M148.3,44.3l4-0.6v-26l-4-0.6V16h9.6v4.4c2.4-3.3,5.1-4.9,8.1-4.9c1.4,0,2.7,0.4,3.8,1.1
	c1.1,0.7,1.6,1.8,1.6,3.1c0,1-0.3,1.8-1,2.5c-0.6,0.7-1.5,1-2.6,1c-1.2,0-2.2-0.5-3-1.4c0.4-0.5,0.6-1.1,0.6-1.7
	c0-0.6-0.2-1.2-0.7-1.6c-0.4-0.4-1-0.6-1.7-0.6c-0.8,0-1.6,0.4-2.4,1.1c-0.8,0.7-1.8,1.9-2.8,3.4v21.2l4.5,0.6v1.1h-14.2V44.3z"/>
<path class="st0" d="M180.3,44.1c-2.3-1.3-4.1-3.1-5.4-5.4c-1.3-2.3-2-5-2-8c0-3,0.7-5.7,2-8c1.3-2.3,3.1-4.1,5.3-5.3
	c2.2-1.3,4.7-1.9,7.4-1.9c2.4,0,4.5,0.5,6.4,1.6c1.9,1.1,3.4,2.5,4.4,4.4c1.1,1.9,1.6,4,1.6,6.4h-20.9v5.6c0,3.3,0.7,6,2.2,8.1
	c1.5,2.1,3.7,3.1,6.5,3.1c2.6,0,4.9-0.7,6.9-2.2c2-1.5,3.2-3.4,3.7-5.7h1.3c-0.5,2.8-1.9,5-4,6.7S191,46,187.9,46
	C185.1,46,182.5,45.3,180.3,44.1z M193.8,26.5c0-3.3-0.5-5.7-1.5-7.3c-1-1.6-2.6-2.4-4.8-2.4c-2.5,0-4.5,0.9-5.9,2.7
	c-1.4,1.8-2.2,4.1-2.4,7.1H193.8z"/>
</svg>
