<svg xmlns="http://www.w3.org/2000/svg" viewBox="0 0 32 32">
  <!-- Bold peperoncino - fills more space for favicon readability -->
  <path d="M18 8c-3 3-5 8-5 14c0 3 1.5 5 4 5s4-2 4-5c0-4-1-8-3-12" fill="#D4432A" stroke="#B8321E" stroke-width="0.5"/>
  <path d="M18 8c-2 2-4 7-4 13c0 2.5 1 4 3 4" fill="#E85040"/>
  <!-- Stem -->
  <path d="M18 8c1-2 3-4 5-4c1 0 1.5 0.8 1 1.5c-0.8 1-2 1.8-3.5 2" fill="#2E7D32"/>
  <path d="M18 8c0.5-2.5 2-4.5 3.5-4.5" fill="none" stroke="#4CAF50" stroke-width="1.5" stroke-linecap="round"/>
  <!-- Sun circle - simple, bold -->
  <circle cx="8" cy="8" r="5" fill="#E8A838"/>
  <circle cx="7" cy="7" r="3" fill="#F5C563" opacity="0.6"/>
</svg>
