<svg xmlns="http://www.w3.org/2000/svg" viewBox="0 0 32 32">
  <!-- Sun -->
  <circle cx="20" cy="8" r="4" fill="#E8A838"/>
  <g stroke="#E8A838" stroke-width="1.2" stroke-linecap="round">
    <line x1="20" y1="2" x2="20" y2="3.5"/>
    <line x1="24.2" y1="3.8" x2="23.2" y2="5"/>
    <line x1="26" y1="8" x2="24.5" y2="8"/>
    <line x1="24.2" y1="12.2" x2="23.2" y2="11"/>
    <line x1="15.8" y1="3.8" x2="16.8" y2="5"/>
  </g>
  <!-- Peperoncino -->
  <path d="M14 6c-1.5 2-2 5 0 10s4 10 4 14c0 1-1 2-3 2s-4-2-5-5c-2-5-1.5-10 1-14s3-6 3-7" fill="#D4432A"/>
  <!-- Stem -->
  <path d="M14 6c0.5-1.5 2-3 3-3 0.5 0 1 0.3 1 0.8s-0.5 1.2-1 1.5" fill="#4CAF50"/>
</svg>
