<svg xmlns="http://www.w3.org/2000/svg" viewBox="0 0 64 64">
  <!-- Peperoncino -->
  <path d="M32 8c-2 0-3.5 1.2-4 3-1 3.5 2 8 6 14 4 6 10 14 10 22 0 6-4 10-10 10s-10-4-12-10c-2-6-1-12 2-18 3-5.5 6-10 8-14 1-2 1.5-4.5 0-7" fill="#D4432A" stroke="#B8321A" stroke-width="1"/>
  <!-- Stem -->
  <path d="M30 11c1-3 3-5 5-5 1 0 2 .5 2 1.5s-1 2-2 2.5" fill="#4CAF50" stroke="#388E3C" stroke-width="0.5"/>
  <!-- Sun rays -->
  <circle cx="38" cy="14" r="5" fill="#F5B731"/>
  <g stroke="#F5B731" stroke-width="1.5" stroke-linecap="round">
    <line x1="38" y1="6" x2="38" y2="8"/>
    <line x1="44" y1="8" x2="43" y2="10"/>
    <line x1="46" y1="14" x2="44" y2="14"/>
    <line x1="44" y1="20" x2="43" y2="18"/>
    <line x1="32" y1="8" x2="33" y2="10"/>
  </g>
</svg>
